<svg width="75" height="76" viewBox="0 0 75 76" fill="none" xmlns="http://www.w3.org/2000/svg">
<rect x="1.5" y="2" width="72" height="72" rx="36" stroke="black" stroke-width="3"/>
<path d="M37.4997 60.9168C50.1562 60.9168 60.4163 50.6567 60.4163 38.0002C60.4163 25.3436 50.1562 15.0835 37.4997 15.0835C24.8431 15.0835 14.583 25.3436 14.583 38.0002C14.583 50.6567 24.8431 60.9168 37.4997 60.9168Z" stroke="black" stroke-width="3"/>
<path d="M45.5205 31.125L45.9137 31.5182C48.9693 34.5737 50.497 36.1015 50.497 38C50.497 39.8985 48.9693 41.4263 45.9137 44.4818L45.5205 44.875" stroke="black" stroke-width="3" stroke-linecap="round"/>
<path d="M40.4658 26.9321L37.5002 38L34.5345 49.0679" stroke="black" stroke-width="3" stroke-linecap="round"/>
<path d="M29.4795 31.125L29.0863 31.5182C26.0307 34.5737 24.5029 36.1015 24.5029 38C24.5029 39.8985 26.0307 41.4263 29.0863 44.4818L29.4795 44.875" stroke="black" stroke-width="3" stroke-linecap="round"/>
</svg>
