<svg width="76" height="75" viewBox="0 0 76 75" fill="none" xmlns="http://www.w3.org/2000/svg">
<rect x="2" y="1.5" width="72" height="72" rx="36" stroke="black" stroke-width="3"/>
<path d="M21.333 37.4999C21.333 29.6432 21.333 25.7148 23.7738 23.274C26.2146 20.8333 30.1429 20.8333 37.9997 20.8333C45.8564 20.8333 49.7848 20.8333 52.2256 23.274C54.6663 25.7148 54.6663 29.6432 54.6663 37.4999C54.6663 45.3567 54.6663 49.285 52.2256 51.7258C49.7848 54.1666 45.8564 54.1666 37.9997 54.1666C30.1429 54.1666 26.2146 54.1666 23.7738 51.7258C21.333 49.285 21.333 45.3567 21.333 37.4999Z" stroke="black" stroke-width="3"/>
<circle cx="44.6663" cy="30.8333" r="3.33333" stroke="black" stroke-width="3"/>
<path d="M21.333 34.4231L22.9676 34.1884C34.5979 32.5184 44.5393 42.5523 42.7616 54.1667" stroke="black" stroke-width="3" stroke-linecap="round"/>
<path d="M54.6666 39.8076L53.0442 39.583C48.3047 38.9267 44.0162 41.2863 41.8076 45.0002" stroke="black" stroke-width="3" stroke-linecap="round"/>
</svg>
