<svg width="150" height="150" viewBox="0 0 150 150" fill="none" xmlns="http://www.w3.org/2000/svg">
<path d="M75 2C115.317 2 148 34.6832 148 75C148 115.317 115.317 148 75 148C34.6832 148 2 115.317 2 75C2 34.6832 34.6832 2 75 2Z" fill="black" stroke="black" stroke-width="4"/>
<path d="M27.6785 122.392C42.9648 137.59 76.4716 128.671 102.518 102.472C128.564 76.2726 137.287 42.7142 122.001 27.517C106.714 12.3198 73.2075 21.2386 47.1612 47.4377C21.1148 73.6368 12.3921 107.195 27.6785 122.392Z" fill="white"/>
<path d="M119 34C114.763 28.2884 107.5 22 86.5 22.5C99.5 18.5 113.502 19.0022 122.002 27.502C131.003 36.5021 131.847 51 127 65C124.302 72.7959 119.297 82.4751 118.503 82.0022C118.302 81.8827 130.5 49.5 119 34Z" fill="#262626"/>
<path d="M29.8594 116.142C34.4128 120.984 40.1992 128.056 58.9994 128.501C47.518 131.531 35.5638 130.56 27.4998 122.5C19.0506 114.056 17.6236 100.368 21.3722 88.0335C23.4597 81.1648 30.5 68 31 68C30.9978 68.0045 30.9953 68.0096 30.9926 68.0153C30.3888 69.3029 17.5549 103.058 29.8594 116.142Z" fill="#4A4A4A"/>
<path d="M75.0002 105.978C92.1091 105.978 105.978 92.1088 105.978 75C105.978 57.8912 92.1091 44.0217 75.0002 44.0217C57.8914 44.0217 44.022 57.8912 44.022 75C44.022 92.1088 57.8914 105.978 75.0002 105.978Z" fill="url(#paint0_linear_242_2129)"/>
<defs>
<linearGradient id="paint0_linear_242_2129" x1="57.0005" y1="117" x2="97.5005" y2="38" gradientUnits="userSpaceOnUse">
<stop/>
<stop offset="1" stop-color="#484848"/>
</linearGradient>
</defs>
</svg>
